<?xml version="1.0" encoding="UTF-8"?>
<!DOCTYPE svg PUBLIC "-//W3C//DTD SVG 1.1//EN" "http://www.w3.org/Graphics/SVG/1.1/DTD/svg11.dtd">
<svg xmlns="http://www.w3.org/2000/svg" version="1.1" width="901px" height="901px" style="shape-rendering:geometricPrecision; text-rendering:geometricPrecision; image-rendering:optimizeQuality; fill-rule:evenodd; clip-rule:evenodd" xmlns:xlink="http://www.w3.org/1999/xlink">
<g><path style="opacity:0.938" fill="#6fbf55" d="M 386.5,37.5 C 389.97,36.8748 392.804,37.8748 395,40.5C 417.403,68.6275 431.57,100.294 437.5,135.5C 426.926,114.675 415.093,94.6755 402,75.5C 393.746,64.5751 384.746,54.2418 375,44.5C 374.383,43.5509 374.549,42.7175 375.5,42C 379.307,40.5716 382.974,39.0716 386.5,37.5 Z"/></g>
<g><path style="opacity:0.945" fill="#6ebf55" d="M 508.5,37.5 C 514.853,38.2292 520.853,40.0626 526.5,43C 500.015,70.4441 478.848,101.611 463,136.5C 469.036,99.1932 484.202,66.1932 508.5,37.5 Z"/></g>
<g><path style="opacity:0.953" fill="#6fbf55" d="M 553.5,50.5 C 560.862,53.0139 567.862,56.3472 574.5,60.5C 547.185,77.9634 522.352,98.6301 500,122.5C 492.615,131.55 485.615,140.884 479,150.5C 473.419,160.664 467.586,170.664 461.5,180.5C 463.555,168.497 467.389,156.831 473,145.5C 492.081,107.253 518.915,75.5865 553.5,50.5 Z"/></g>
<g><path style="opacity:0.949" fill="#6fbf55" d="M 341.5,51.5 C 343.857,51.3367 346.19,51.5034 348.5,52C 383.382,77.5404 410.215,109.707 429,148.5C 433.569,158.867 436.902,169.534 439,180.5C 420.851,145.666 396.684,115.499 366.5,90C 353.167,80 339.833,70 326.5,60C 331.563,57.1393 336.563,54.306 341.5,51.5 Z"/></g>
<g><path style="opacity:0.968" fill="#6fbf55" d="M 599.5,73.5 C 608.843,78.5063 617.51,84.5063 625.5,91.5C 589.103,107.521 555.103,127.354 523.5,151C 497.129,172.531 476.129,198.364 460.5,228.5C 459.369,226.926 459.202,225.259 460,223.5C 471.339,183.171 492.839,149.338 524.5,122C 547.556,102.807 572.556,86.6402 599.5,73.5 Z"/></g>
<g><path style="opacity:0.967" fill="#6fbf55" d="M 298.5,74.5 C 305.887,76.1874 312.887,79.0208 319.5,83C 347.509,98.3303 372.676,117.497 395,140.5C 416.463,163.746 431.463,190.746 440,221.5C 440.667,223.5 440.667,225.5 440,227.5C 418.839,188.669 389.672,157.169 352.5,133C 328.214,117.688 302.881,104.188 276.5,92.5C 275.269,91.3493 275.269,90.1827 276.5,89C 284.009,84.3037 291.343,79.4703 298.5,74.5 Z"/></g>
<g><path style="opacity:0.975" fill="#6fbf55" d="M 253.5,106.5 C 307.195,128.496 355.862,158.33 399.5,196C 413.145,209.808 424.978,224.975 435,241.5C 442.388,254.998 447.388,269.331 450,284.5C 455.482,258.205 466.816,234.871 484,214.5C 500.995,195.499 519.828,178.666 540.5,164C 573.534,141.893 608.367,122.726 645,106.5C 654.756,114.252 663.923,122.752 672.5,132C 637.813,146.008 603.813,161.675 570.5,179C 534.369,197.485 502.536,221.651 475,251.5C 465.587,263.316 457.42,275.983 450.5,289.5C 446.593,284.698 443.426,279.365 441,273.5C 423.544,247.043 401.71,224.877 375.5,207C 345.744,187.115 314.411,169.782 281.5,155C 263.825,147.495 246.158,139.995 228.5,132.5C 236.855,123.813 245.188,115.146 253.5,106.5 Z"/></g>
<g><path style="opacity:0.978" fill="#6ebf55" d="M 212.5,152.5 C 260.961,168.897 307.627,189.397 352.5,214C 382.992,231.487 408.825,254.321 430,282.5C 439.997,298.15 446.663,315.15 450,333.5C 457.116,299.759 473.616,271.592 499.5,249C 517.275,233.944 536.275,220.61 556.5,209C 598.866,186.733 642.699,167.9 688,152.5C 695.791,162.583 702.957,173.083 709.5,184C 709.095,184.945 708.428,185.612 707.5,186C 658.93,198.791 611.93,215.791 566.5,237C 526.814,255.686 493.314,282.186 466,316.5C 460.833,324.833 455.667,333.167 450.5,341.5C 436.729,317.548 419.396,296.382 398.5,278C 367.525,253.768 333.525,234.435 296.5,220C 261.637,206.935 226.304,195.268 190.5,185C 197.272,173.739 204.605,162.905 212.5,152.5 Z"/></g>
<g><path style="opacity:0.977" fill="#6ebf55" d="M 178.5,208.5 C 232.625,222.375 284.625,241.875 334.5,267C 372.838,285.6 404.672,312.1 430,346.5C 439.189,361.057 445.855,376.724 450,393.5C 459.309,359.873 477.143,331.706 503.5,309C 534.253,283.608 568.253,263.274 605.5,248C 642.913,232.473 681.246,219.64 720.5,209.5C 723.064,209.62 724.564,210.953 725,213.5C 728.667,222.167 732.333,230.833 736,239.5C 737.079,242.063 737.579,244.729 737.5,247.5C 685.62,256.97 634.953,270.803 585.5,289C 542.294,305.345 505.128,330.512 474,364.5C 465.609,375.892 457.609,387.559 450,399.5C 428.116,361.283 397.95,331.45 359.5,310C 312.864,286.12 263.864,268.787 212.5,258C 196.162,254.332 179.828,250.666 163.5,247C 162.724,245.23 162.89,243.397 164,241.5C 168.354,230.263 173.188,219.263 178.5,208.5 Z"/></g>
<g><path style="opacity:0.976" fill="#6ebf55" d="M 153.5,271.5 C 205.382,279.221 255.716,292.721 304.5,312C 334.877,324.68 363.211,340.68 389.5,360C 407.526,374.689 422.693,391.856 435,411.5C 441.668,423.504 446.668,436.171 450,449.5C 459.377,416.798 476.877,389.298 502.5,367C 542.753,335.036 587.753,311.703 637.5,297C 673.522,285.63 710.189,277.13 747.5,271.5C 749.39,282.452 751.723,293.285 754.5,304C 754.167,304.333 753.833,304.667 753.5,305C 714.88,311.591 676.546,319.591 638.5,329C 600.231,338.751 564.231,353.751 530.5,374C 497.575,395.591 470.742,423.091 450,456.5C 414.874,400.995 366.041,362.828 303.5,342C 252.53,325.257 200.53,312.924 147.5,305C 147.167,304.667 146.833,304.333 146.5,304C 149.02,293.233 151.354,282.4 153.5,271.5 Z"/></g>
<g><path style="opacity:0.976" fill="#6ebf55" d="M 143.5,332.5 C 207.412,344.894 269.746,362.727 330.5,386C 356.582,396.866 380.915,410.533 403.5,427C 419.654,439.477 432.487,454.644 442,472.5C 445.679,481.204 448.346,490.204 450,499.5C 453.149,482.029 460.149,466.362 471,452.5C 487.901,432.926 507.734,417.093 530.5,405C 559.744,389.805 590.078,377.138 621.5,367C 666.152,353.004 711.485,341.837 757.5,333.5C 758.131,344.922 757.464,356.088 755.5,367C 692.153,375.254 630.486,390.254 570.5,412C 536.973,424.923 507.14,443.423 481,467.5C 474.958,473.873 469.292,480.54 464,487.5C 459.333,494.833 454.667,502.167 450,509.5C 434.03,480.196 411.863,456.696 383.5,439C 345.627,416.815 305.293,400.481 262.5,390C 223.31,379.913 183.644,372.413 143.5,367.5C 143.5,355.833 143.5,344.167 143.5,332.5 Z"/></g>
<g><path style="opacity:0.978" fill="#6ebf55" d="M 144.5,394.5 C 207.918,405.474 269.585,422.641 329.5,446C 356.214,457.184 381.214,471.184 404.5,488C 416.409,497.907 426.909,509.074 436,521.5C 442.879,531.925 447.546,543.258 450,555.5C 456.189,531.947 468.356,512.114 486.5,496C 513.111,473.846 542.778,456.513 575.5,444C 634.637,420.932 695.304,404.932 757.5,396C 755.581,408.766 753.914,421.599 752.5,434.5C 687.305,439.638 624.305,454.138 563.5,478C 517.857,496.484 480.191,525.317 450.5,564.5C 435.711,546.544 419.378,530.044 401.5,515C 369.433,492.134 334.433,474.801 296.5,463C 270.587,454.938 244.253,448.605 217.5,444C 194.526,440.254 171.526,436.754 148.5,433.5C 145.982,420.511 144.648,407.511 144.5,394.5 Z"/></g>
<g><path style="opacity:0.973" fill="#6ebf55" d="M 155.5,462.5 C 216.627,472.865 276.294,488.698 334.5,510C 361.882,520.514 386.882,534.847 409.5,553C 432.204,571.57 445.704,595.404 450,624.5C 456.434,589.787 474.267,562.62 503.5,543C 527.827,526.837 553.827,513.837 581.5,504C 635.307,485.546 689.974,472.213 745.5,464C 741.254,476.905 736.921,489.739 732.5,502.5C 668.471,504.272 606.805,517.105 547.5,541C 515.903,554.54 489.403,574.707 468,601.5C 461.166,611.675 455.166,622.341 450,633.5C 435.34,600.503 412.507,574.67 381.5,556C 338.176,531.911 291.843,516.578 242.5,510C 217.961,506.162 193.294,503.496 168.5,502C 163.261,489.117 158.928,475.95 155.5,462.5 Z"/></g>
<g><path style="opacity:0.973" fill="#6ebf55" d="M 183.5,534.5 C 238.258,540.606 291.258,553.773 342.5,574C 367.479,584.478 390.146,598.478 410.5,616C 427.984,632.13 438.817,651.963 443,675.5C 443.667,680.5 443.667,685.5 443,690.5C 424.833,655 398,628.167 362.5,610C 329.711,594.07 295.378,582.737 259.5,576C 240.524,572.813 221.524,569.813 202.5,567C 195.513,556.522 189.18,545.688 183.5,534.5 Z"/></g>
<g><path style="opacity:0.975" fill="#6ebf55" d="M 714.5,533.5 C 715.873,533.343 717.207,533.51 718.5,534C 711.5,545 704.5,556 697.5,567C 661.942,571.178 626.942,578.178 592.5,588C 558.989,598.421 528.323,614.087 500.5,635C 482.515,650.145 468.515,668.312 458.5,689.5C 456.888,679.637 457.721,669.971 461,660.5C 468.155,641.005 479.655,624.505 495.5,611C 527.568,586.505 563.234,568.839 602.5,558C 639.414,547.32 676.747,539.153 714.5,533.5 Z"/></g>
<g><path style="opacity:1" fill="#575758" d="M 553.5,797.5 C 555.992,795.908 557.992,796.408 559.5,799C 558.226,804.765 554.559,807.932 548.5,808.5C 540.739,807.803 537.406,803.637 538.5,796C 539.82,788.875 540.82,781.709 541.5,774.5C 544.47,774.254 545.803,772.588 545.5,769.5C 543.712,769.785 542.045,769.452 540.5,768.5C 542.396,767.534 544.396,767.201 546.5,767.5C 546.833,764.833 547.167,762.167 547.5,759.5C 549.199,759.34 550.866,759.506 552.5,760C 550.117,761.8 548.45,764.133 547.5,767C 548.025,767.692 548.692,768.192 549.5,768.5C 550.167,766.5 550.833,764.5 551.5,762.5C 552.452,764.045 552.785,765.712 552.5,767.5C 555.833,767.5 559.167,767.5 562.5,767.5C 562.725,769.716 561.892,771.383 560,772.5C 559.383,771.551 559.549,770.718 560.5,770C 557.167,769.333 553.833,769.333 550.5,770C 550.957,770.414 551.291,770.914 551.5,771.5C 550.486,776.814 549.153,781.98 547.5,787C 548.953,788.713 548.786,790.213 547,791.5C 546.502,794.482 546.335,797.482 546.5,800.5C 548.833,800.5 551.167,800.5 553.5,800.5C 553.5,799.5 553.5,798.5 553.5,797.5 Z"/></g>
<g><path style="opacity:1" fill="#535354" d="M 63.5,751.5 C 66.5719,751.183 69.5719,751.516 72.5,752.5C 73.4147,753.328 74.0814,754.328 74.5,755.5C 72.6944,759.636 71.861,763.969 72,768.5C 78.1069,763.519 83.9402,758.186 89.5,752.5C 93.5,751.167 97.5,751.167 101.5,752.5C 101.833,753.167 102.167,753.833 102.5,754.5C 93.5,762.833 84.5,771.167 75.5,779.5C 78.6673,782.506 80.8339,786.173 82,790.5C 84.2599,794.306 86.7599,797.973 89.5,801.5C 90.812,803.736 90.4787,805.736 88.5,807.5C 85.8333,808.833 83.1667,808.833 80.5,807.5C 76.1278,800.721 72.1278,793.721 68.5,786.5C 66.1072,792.645 64.4406,798.978 63.5,805.5C 62.1761,807.318 60.3428,808.318 58,808.5C 56.3419,808.325 55.0086,807.658 54,806.5C 53.3333,802.5 53.3333,798.5 54,794.5C 57.4793,780.23 60.646,765.897 63.5,751.5 Z"/></g>
<g><path style="opacity:1" fill="#4c4c4c" d="M 526.5,766.5 C 523.167,766.5 519.833,766.5 516.5,766.5C 516.833,768.5 517.167,770.5 517.5,772.5C 519.993,772.131 520.66,772.797 519.5,774.5C 516.931,775.629 514.765,777.296 513,779.5C 512.564,782.398 511.397,784.731 509.5,786.5C 510.136,783.894 510.136,781.394 509.5,779C 510.308,778.692 510.975,778.192 511.5,777.5C 510.389,776.389 509.722,775.055 509.5,773.5C 510.223,771.218 510.557,768.884 510.5,766.5C 508.738,766.357 507.071,766.691 505.5,767.5C 502.139,778.895 499.472,790.395 497.5,802C 497.833,803.167 498.167,804.333 498.5,805.5C 499.419,799.874 501.086,794.541 503.5,789.5C 503.682,794.59 502.682,799.59 500.5,804.5C 501.274,805.711 502.107,805.711 503,804.5C 503.49,803.207 503.657,801.873 503.5,800.5C 504.5,800.5 505.5,800.5 506.5,800.5C 505.231,806.772 501.564,809.106 495.5,807.5C 494.978,806.393 494.645,805.226 494.5,804C 497.13,792.23 499.797,780.396 502.5,768.5C 506.098,763.221 509.598,763.221 513,768.5C 517.118,764.201 521.618,763.535 526.5,766.5 Z"/></g>
<g><path style="opacity:1" fill="#555556" d="M 795.5,763.5 C 805.705,764.039 811.372,769.372 812.5,779.5C 810.948,782.324 809.948,785.324 809.5,788.5C 802.209,789.392 794.876,789.726 787.5,789.5C 786.969,795.304 789.636,798.304 795.5,798.5C 798.684,797.827 801.684,796.994 804.5,796C 807.448,799.927 806.782,803.261 802.5,806C 799.866,807.436 797.033,808.269 794,808.5C 789.97,807.98 786.136,806.813 782.5,805C 780.294,803.316 778.794,801.149 778,798.5C 774.589,781.851 780.423,770.185 795.5,763.5 Z M 793.5,774.5 C 796.167,774.5 798.833,774.5 801.5,774.5C 801.5,776.5 801.5,778.5 801.5,780.5C 797.425,780.998 793.425,780.998 789.5,780.5C 790.255,778.035 791.588,776.035 793.5,774.5 Z"/></g>
<g><path style="opacity:0.578" fill="#494949" d="M 553.5,797.5 C 553.5,798.5 553.5,799.5 553.5,800.5C 551.167,800.5 548.833,800.5 546.5,800.5C 546.335,797.482 546.502,794.482 547,791.5C 548.786,790.213 548.953,788.713 547.5,787C 549.153,781.98 550.486,776.814 551.5,771.5C 551.291,770.914 550.957,770.414 550.5,770C 553.833,769.333 557.167,769.333 560.5,770C 559.549,770.718 559.383,771.551 560,772.5C 561.892,771.383 562.725,769.716 562.5,767.5C 559.167,767.5 555.833,767.5 552.5,767.5C 552.785,765.712 552.452,764.045 551.5,762.5C 550.833,764.5 550.167,766.5 549.5,768.5C 548.692,768.192 548.025,767.692 547.5,767C 548.45,764.133 550.117,761.8 552.5,760C 550.866,759.506 549.199,759.34 547.5,759.5C 547.167,762.167 546.833,764.833 546.5,767.5C 544.396,767.201 542.396,767.534 540.5,768.5C 542.045,769.452 543.712,769.785 545.5,769.5C 545.803,772.588 544.47,774.254 541.5,774.5C 538.056,773.955 536.889,771.955 538,768.5C 539.697,766.368 541.864,765.035 544.5,764.5C 545.092,758.207 548.425,755.873 554.5,757.5C 555.474,759.743 555.808,762.076 555.5,764.5C 562.334,763.184 564.834,765.851 563,772.5C 559.851,774.362 556.351,775.029 552.5,774.5C 551.892,782.626 550.558,790.626 548.5,798.5C 550.216,798.371 551.883,798.038 553.5,797.5 Z"/></g>
<g><path style="opacity:1" fill="#535354" d="M 420.5,763.5 C 424.403,763.258 427.569,764.591 430,767.5C 433.534,763.36 436.701,763.526 439.5,768C 436.603,780.11 433.936,792.277 431.5,804.5C 430.501,807.261 428.501,808.594 425.5,808.5C 423.077,808.45 421.244,807.45 420,805.5C 410.811,810.759 404.478,808.425 401,798.5C 400.264,793.134 400.431,787.8 401.5,782.5C 403.392,777.842 405.725,773.508 408.5,769.5C 412.602,767.449 416.602,765.449 420.5,763.5 Z M 422.5,772.5 C 423.914,774.054 425.581,775.388 427.5,776.5C 425.094,781.941 422.761,787.441 420.5,793C 418.808,795.274 416.808,797.107 414.5,798.5C 413.353,798.182 412.519,797.516 412,796.5C 411.333,792.833 411.333,789.167 412,785.5C 413.591,782.648 414.924,779.648 416,776.5C 418.565,775.53 420.732,774.196 422.5,772.5 Z"/></g>
<g><path style="opacity:1" fill="#555556" d="M 264.5,751.5 C 267.898,751.18 271.232,751.513 274.5,752.5C 279.051,762.941 283.051,773.607 286.5,784.5C 289.075,773.792 291.742,763.125 294.5,752.5C 297.833,751.167 301.167,751.167 304.5,752.5C 304.833,753.167 305.167,753.833 305.5,754.5C 302.552,767.165 299.885,779.832 297.5,792.5C 296.148,797.665 294.482,802.665 292.5,807.5C 288.654,809.036 285.32,808.369 282.5,805.5C 279.859,796.541 276.859,787.707 273.5,779C 273.291,777.129 272.291,775.962 270.5,775.5C 269.262,785.357 267.429,795.024 265,804.5C 262.339,808.209 258.839,809.209 254.5,807.5C 253.483,804.378 253.483,801.211 254.5,798C 258.202,782.635 261.536,767.135 264.5,751.5 Z"/></g>
<g><path style="opacity:1" fill="#565657" d="M 526.5,766.5 C 528.484,766.383 530.15,767.05 531.5,768.5C 532.852,771.861 533.518,775.361 533.5,779C 533.253,789.084 530.92,798.584 526.5,807.5C 521.66,809.33 518.993,807.663 518.5,802.5C 521.225,793.334 522.892,784.001 523.5,774.5C 522.167,774.5 520.833,774.5 519.5,774.5C 520.66,772.797 519.993,772.131 517.5,772.5C 517.167,770.5 516.833,768.5 516.5,766.5C 519.833,766.5 523.167,766.5 526.5,766.5 Z"/></g>
<g><path style="opacity:1" fill="#5a5a5c" d="M 509.5,786.5 C 509.079,791.324 508.079,795.991 506.5,800.5C 505.5,800.5 504.5,800.5 503.5,800.5C 503.657,801.873 503.49,803.207 503,804.5C 502.107,805.711 501.274,805.711 500.5,804.5C 502.682,799.59 503.682,794.59 503.5,789.5C 501.086,794.541 499.419,799.874 498.5,805.5C 498.167,804.333 497.833,803.167 497.5,802C 499.472,790.395 502.139,778.895 505.5,767.5C 507.071,766.691 508.738,766.357 510.5,766.5C 510.557,768.884 510.223,771.218 509.5,773.5C 509.722,775.055 510.389,776.389 511.5,777.5C 510.975,778.192 510.308,778.692 509.5,779C 510.136,781.394 510.136,783.894 509.5,786.5 Z"/></g>
<g><path style="opacity:1" fill="#545455" d="M 157.5,763.5 C 160.622,763.318 163.289,764.318 165.5,766.5C 166.611,765.389 167.945,764.722 169.5,764.5C 171.056,765.547 172.723,766.214 174.5,766.5C 175.067,774.158 175.734,781.824 176.5,789.5C 180.761,781.245 185.428,773.245 190.5,765.5C 194.418,763.86 197.085,765.027 198.5,769C 193.86,778.97 188.527,788.637 182.5,798C 180.17,806.026 176.17,813.026 170.5,819C 167.167,819.667 163.833,819.667 160.5,819C 156.336,815.222 156.503,811.722 161,808.5C 162.678,810.282 164.511,810.615 166.5,809.5C 167.171,807.493 168.171,805.66 169.5,804C 167.587,794.158 165.92,784.325 164.5,774.5C 161.07,774.107 157.904,774.773 155,776.5C 150.44,786.459 146.94,796.792 144.5,807.5C 142.167,808.833 139.833,808.833 137.5,807.5C 136.415,804.227 136.248,800.894 137,797.5C 138.79,787.121 141.123,776.788 144,766.5C 147.28,763.763 150.28,764.097 153,767.5C 154.196,765.714 155.696,764.381 157.5,763.5 Z"/></g>
<g><path style="opacity:1" fill="#545455" d="M 356.5,763.5 C 360.34,763.421 363.507,764.754 366,767.5C 369.534,763.36 372.701,763.526 375.5,768C 372.942,780.182 370.275,792.348 367.5,804.5C 363.902,809.779 360.402,809.779 357,804.5C 350.026,810.212 343.693,809.545 338,802.5C 332.86,783.698 339.027,770.698 356.5,763.5 Z M 358.5,773.5 C 360.042,774.301 361.708,774.634 363.5,774.5C 361.691,783.116 358.025,790.782 352.5,797.5C 351.264,798.246 349.93,798.579 348.5,798.5C 347.871,796.535 347.204,794.535 346.5,792.5C 347.505,786.661 349.505,781.161 352.5,776C 354.611,775.155 356.611,774.322 358.5,773.5 Z"/></g>
<g><path style="opacity:1" fill="#545454" d="M 849.5,751.5 C 853.246,752.078 855.58,754.244 856.5,758C 855.562,760.663 854.229,763.163 852.5,765.5C 853.585,768.773 853.752,772.106 853,775.5C 850.917,785.112 848.75,794.779 846.5,804.5C 845.66,807.17 843.827,808.503 841,808.5C 838.452,808.42 836.619,807.253 835.5,805C 837.995,794.858 840.328,784.692 842.5,774.5C 838.543,774.008 834.877,774.675 831.5,776.5C 827.355,785.356 824.521,794.69 823,804.5C 820.482,808.623 817.316,809.29 813.5,806.5C 813.167,805 812.833,803.5 812.5,802C 815.006,791.119 817.34,780.119 819.5,769C 820.196,765.816 822.196,764.316 825.5,764.5C 827.384,764.716 829.051,765.383 830.5,766.5C 837.002,762.005 841.335,763.671 843.5,771.5C 843.468,766.7 845.802,764.2 850.5,764C 849.109,762.98 847.609,762.147 846,761.5C 845.333,759.167 845.333,756.833 846,754.5C 847.729,754.026 848.895,753.026 849.5,751.5 Z"/></g>
<g><path style="opacity:1" fill="#555555" d="M 216.5,763.5 C 219.741,763.878 222.741,764.878 225.5,766.5C 227.599,764.466 229.932,764.132 232.5,765.5C 233.544,766.623 234.21,767.956 234.5,769.5C 233,775.167 231.5,780.833 230,786.5C 229.531,792.386 228.698,798.219 227.5,804C 226.804,807.184 224.804,808.684 221.5,808.5C 218.983,808.385 216.983,807.385 215.5,805.5C 207.01,810.469 200.843,808.469 197,799.5C 194.356,787.505 197.189,777.172 205.5,768.5C 208.912,766.04 212.579,764.373 216.5,763.5 Z M 218.5,772.5 C 219.749,774.136 221.416,775.303 223.5,776C 221.343,779.084 220.009,782.584 219.5,786.5C 218.007,790.156 216.007,793.489 213.5,796.5C 212.131,798.124 210.464,798.624 208.5,798C 206.293,789.992 207.626,782.659 212.5,776C 215.019,775.414 217.019,774.247 218.5,772.5 Z"/></g>
<g><path style="opacity:1" fill="#545455" d="M 610.5,751.5 C 614.77,750.794 617.436,752.461 618.5,756.5C 615.971,761.994 615.305,767.66 616.5,773.5C 619.404,768.764 623.571,765.764 629,764.5C 633.081,765.119 634.414,767.452 633,771.5C 628.19,774.649 623.69,778.149 619.5,782C 618.941,782.725 618.608,783.558 618.5,784.5C 621.476,791.118 624.976,797.451 629,803.5C 629.84,807.118 628.34,808.785 624.5,808.5C 622.22,808.267 620.22,807.434 618.5,806C 615.999,801.159 613.499,796.326 611,791.5C 609.698,796.061 608.532,800.728 607.5,805.5C 606.176,807.318 604.343,808.318 602,808.5C 600.342,808.325 599.009,807.658 598,806.5C 599.789,796.954 601.289,787.287 602.5,777.5C 604.136,768.434 606.803,759.768 610.5,751.5 Z"/></g>
<g><path style="opacity:0.808" fill="#555556" d="M 663.5,751.5 C 666.572,751.183 669.572,751.516 672.5,752.5C 676.983,763.128 681.15,773.795 685,784.5C 686.968,773.685 689.468,763.018 692.5,752.5C 695.768,751.513 699.102,751.18 702.5,751.5C 700.674,770.631 696.674,789.298 690.5,807.5C 686.764,809.105 683.598,808.439 681,805.5C 676.937,795.312 673.271,784.979 670,774.5C 667.136,784.49 664.636,794.656 662.5,805C 661.22,807.329 659.22,808.496 656.5,808.5C 654.68,808.351 653.18,807.684 652,806.5C 653.216,797.546 654.55,788.546 656,779.5C 658.556,770.141 661.056,760.808 663.5,751.5 Z"/></g>
<g><path style="opacity:1" fill="#525252" d="M 388.5,756.5 C 393.281,757.091 394.947,759.591 393.5,764C 400.49,763.808 403.157,766.975 401.5,773.5C 398.232,774.487 394.898,774.82 391.5,774.5C 389.465,782.407 387.798,790.407 386.5,798.5C 389.622,798.682 392.289,797.682 394.5,795.5C 396.921,798.642 397.088,801.975 395,805.5C 388.965,809.749 383.298,809.416 378,804.5C 376.595,800.928 376.262,797.261 377,793.5C 377.861,787.079 379.028,780.746 380.5,774.5C 376.857,773.618 375.69,771.284 377,767.5C 379.034,766.138 381.201,765.138 383.5,764.5C 383.179,760.506 384.845,757.839 388.5,756.5 Z"/></g>
<g><path style="opacity:1" fill="#535353" d="M 467.5,764.5 C 469.766,764.141 471.599,764.808 473,766.5C 473.601,775.951 472.435,785.118 469.5,794C 470.187,798.265 472.52,799.432 476.5,797.5C 479.744,794.469 482.078,790.803 483.5,786.5C 484.429,780.02 485.929,773.686 488,767.5C 492.386,763.317 495.886,763.984 498.5,769.5C 495.338,780.658 492.838,791.991 491,803.5C 488.143,809.083 484.476,809.749 480,805.5C 472.742,810.047 466.409,809.047 461,802.5C 459.578,790.506 460.911,778.84 465,767.5C 466.417,766.922 467.25,765.922 467.5,764.5 Z"/></g>
<g><path style="opacity:1" fill="#525252" d="M 570.5,764.5 C 572.766,764.141 574.599,764.808 576,766.5C 576.667,769.5 576.667,772.5 576,775.5C 574.306,781.316 573.14,787.316 572.5,793.5C 572.548,798.408 574.881,799.741 579.5,797.5C 580.833,795.5 582.167,793.5 583.5,791.5C 586.503,782.785 589.503,774.119 592.5,765.5C 595.589,764.03 598.089,764.697 600,767.5C 599.174,777.612 597.507,787.612 595,797.5C 593.806,799.623 593.14,801.957 593,804.5C 589.644,809.442 585.81,809.775 581.5,805.5C 573.751,810.255 567.418,808.755 562.5,801C 561.272,794.82 561.439,788.654 563,782.5C 564.475,778.649 565.642,774.649 566.5,770.5C 567.458,768.216 568.792,766.216 570.5,764.5 Z"/></g>
<g><path style="opacity:0.983" fill="#535354" d="M 117.5,763.5 C 120.625,763.657 123.458,764.657 126,766.5C 128.659,764.499 131.493,764.166 134.5,765.5C 135.623,768.798 135.623,772.131 134.5,775.5C 132.109,785.862 129.943,796.195 128,806.5C 124.026,809.193 120.193,808.86 116.5,805.5C 109.076,810.142 103.076,808.809 98.5,801.5C 95.2256,788.391 98.2256,777.224 107.5,768C 110.81,766.181 114.143,764.681 117.5,763.5 Z M 118.5,772.5 C 120.011,773.502 121.678,774.169 123.5,774.5C 122.219,783.538 118.552,791.371 112.5,798C 111.207,798.49 109.873,798.657 108.5,798.5C 108.557,796.116 108.223,793.782 107.5,791.5C 109.169,786.152 110.836,780.819 112.5,775.5C 115.216,775.614 117.216,774.614 118.5,772.5 Z"/></g>
<g><path style="opacity:1" fill="#555556" d="M 719.5,763.5 C 729.832,763.669 735.498,768.835 736.5,779C 736.159,783.387 734.159,786.721 730.5,789C 723.809,789.169 717.142,789.669 710.5,790.5C 711.808,793.295 713.474,795.795 715.5,798C 719.876,798.97 723.876,798.137 727.5,795.5C 730.561,797.45 731.228,800.117 729.5,803.5C 719.313,810.985 710.313,809.818 702.5,800C 699.625,788.707 701.625,778.54 708.5,769.5C 712.233,767.447 715.899,765.447 719.5,763.5 Z M 716.5,774.5 C 719.187,774.336 721.854,774.503 724.5,775C 725.406,776.699 725.739,778.533 725.5,780.5C 721.481,780.646 717.481,780.979 713.5,781.5C 714.316,779.105 715.316,776.771 716.5,774.5 Z"/></g>
<g><path style="opacity:1" fill="#545455" d="M 758.5,763.5 C 761.564,763.814 764.397,764.814 767,766.5C 769.659,764.499 772.493,764.166 775.5,765.5C 776.022,766.607 776.355,767.774 776.5,769C 773.754,783.36 770.254,797.527 766,811.5C 764.075,815.03 761.242,817.53 757.5,819C 752.5,819.667 747.5,819.667 742.5,819C 735.018,816.377 733.685,812.044 738.5,806C 742.012,807.847 745.846,809.347 750,810.5C 753.669,810.04 756.503,808.207 758.5,805C 756.091,805.956 753.424,806.456 750.5,806.5C 747.259,806.552 744.259,805.885 741.5,804.5C 734.876,790.093 737.543,777.593 749.5,767C 752.495,765.508 755.495,764.341 758.5,763.5 Z M 759.5,772.5 C 761.011,773.502 762.678,774.169 764.5,774.5C 763.317,782.862 759.984,790.195 754.5,796.5C 752.955,797.452 751.288,797.785 749.5,797.5C 749.682,795.409 749.348,793.409 748.5,791.5C 749.378,785.87 751.044,780.537 753.5,775.5C 756.216,775.614 758.216,774.614 759.5,772.5 Z"/></g>
<g><path style="opacity:1" fill="#535354" d="M 306.5,764.5 C 309.97,763.875 312.804,764.875 315,767.5C 315.819,775.153 316.486,782.82 317,790.5C 320.723,782.802 324.39,775.135 328,767.5C 330.551,765.199 333.384,764.532 336.5,765.5C 337.489,766.468 338.156,767.635 338.5,769C 329.837,784.497 321.837,800.33 314.5,816.5C 312.567,816.729 310.9,817.562 309.5,819C 306.5,819.667 303.5,819.667 300.5,819C 297.148,815.922 296.814,812.589 299.5,809C 301.283,808.768 302.95,809.268 304.5,810.5C 306.353,809.811 307.519,808.478 308,806.5C 308.186,794.379 307.019,782.379 304.5,770.5C 304.87,768.333 305.537,766.333 306.5,764.5 Z"/></g>
</svg>
